<svg width="40" height="40" viewBox="0 0 40 40" fill="none" xmlns="http://www.w3.org/2000/svg">
<g clip-path="url(#clip0_36_2106)">
<path d="M23.8834 33.3332H23.5334C22.828 33.2632 22.1632 32.9702 21.6357 32.4966C21.1082 32.0231 20.7454 31.3937 20.6 30.6999L16.1334 9.99989L11.5334 20.6666C11.4033 20.9647 11.1888 21.2182 10.9163 21.3959C10.6438 21.5736 10.3253 21.6677 10 21.6666H5.00004C4.55801 21.6666 4.13409 21.491 3.82153 21.1784C3.50897 20.8658 3.33337 20.4419 3.33337 19.9999C3.33337 19.5579 3.50897 19.1339 3.82153 18.8214C4.13409 18.5088 4.55801 18.3332 5.00004 18.3332H8.90004L13.0834 8.68322C13.365 8.03566 13.845 7.49425 14.4541 7.13707C15.0633 6.77989 15.7701 6.62538 16.4727 6.69583C17.1753 6.76628 17.8374 7.05804 18.3636 7.52905C18.8897 8.00006 19.2526 8.62597 19.4 9.31656L23.8667 29.9999L28.4667 19.3666C28.5917 19.0622 28.8041 18.8016 29.0769 18.6178C29.3498 18.4339 29.671 18.3349 30 18.3332H35C35.4421 18.3332 35.866 18.5088 36.1786 18.8214C36.4911 19.1339 36.6667 19.5579 36.6667 19.9999C36.6667 20.4419 36.4911 20.8658 36.1786 21.1784C35.866 21.491 35.4421 21.6666 35 21.6666H31.1L26.9167 31.3166C26.6613 31.9107 26.2385 32.4178 25.6999 32.7759C25.1613 33.1339 24.5301 33.3276 23.8834 33.3332Z" fill="#C1BBEB"/>
</g>
<defs>
<clipPath id="clip0_36_2106">
<rect width="40" height="40" fill="white"/>
</clipPath>
</defs>
</svg>
