<svg width="40" height="40" viewBox="0 0 40 40" fill="none" xmlns="http://www.w3.org/2000/svg">
<path d="M33.3333 3.33325H16.6666C15.3405 3.33325 14.0688 3.86004 13.1311 4.79772C12.1934 5.7354 11.6666 7.00717 11.6666 8.33325V11.6666H6.66663C5.34054 11.6666 4.06877 12.1934 3.13109 13.1311C2.19341 14.0687 1.66663 15.3405 1.66663 16.6666V26.6666C1.66608 27.701 1.98639 28.7101 2.58339 29.5549C3.18039 30.3996 4.0247 31.0384 4.99996 31.3833V34.9999C5.00047 35.2952 5.07944 35.5851 5.22879 35.8399C5.37815 36.0947 5.59252 36.3052 5.84996 36.4499C6.09905 36.5911 6.38031 36.6657 6.66663 36.6666C6.96576 36.6665 7.25937 36.5859 7.51663 36.4333L15.4666 31.6666H23.3333C24.6594 31.6666 25.9311 31.1398 26.8688 30.2021C27.8065 29.2644 28.3333 27.9927 28.3333 26.6666V25.6166L32.4833 28.0999C32.7405 28.2526 33.0342 28.3332 33.3333 28.3333C33.6196 28.3324 33.9009 28.2578 34.15 28.1166C34.4074 27.9719 34.6218 27.7614 34.7711 27.5066C34.9205 27.2518 34.9994 26.9619 35 26.6666V23.0499C35.9752 22.7051 36.8195 22.0663 37.4165 21.2216C38.0135 20.3768 38.3338 19.3677 38.3333 18.3333V8.33325C38.3333 7.00717 37.8065 5.7354 36.8688 4.79772C35.9311 3.86004 34.6594 3.33325 33.3333 3.33325ZM25 26.6666C25 27.1086 24.8244 27.5325 24.5118 27.8451C24.1992 28.1577 23.7753 28.3333 23.3333 28.3333H15C14.7008 28.3333 14.4072 28.4139 14.15 28.5666L8.33329 32.0499V29.9999C8.33329 29.5579 8.1577 29.134 7.84514 28.8214C7.53258 28.5088 7.10865 28.3333 6.66663 28.3333C6.2246 28.3333 5.80068 28.1577 5.48812 27.8451C5.17555 27.5325 4.99996 27.1086 4.99996 26.6666V16.6666C4.99996 16.2246 5.17555 15.8006 5.48812 15.4881C5.80068 15.1755 6.2246 14.9999 6.66663 14.9999H11.6666V18.3333C11.6666 19.6593 12.1934 20.9311 13.1311 21.8688C14.0688 22.8065 15.3405 23.3333 16.6666 23.3333H24.5333L25 23.6166V26.6666ZM35 18.3333C35 18.7753 34.8244 19.1992 34.5118 19.5118C34.1992 19.8243 33.7753 19.9999 33.3333 19.9999C32.8913 19.9999 32.4673 20.1755 32.1548 20.4881C31.8422 20.8006 31.6666 21.2246 31.6666 21.6666V23.7166L25.85 20.2333C25.5927 20.0806 25.2991 20 25 19.9999H16.6666C16.2246 19.9999 15.8007 19.8243 15.4881 19.5118C15.1756 19.1992 15 18.7753 15 18.3333V8.33325C15 7.89122 15.1756 7.4673 15.4881 7.15474C15.8007 6.84218 16.2246 6.66659 16.6666 6.66659H33.3333C33.7753 6.66659 34.1992 6.84218 34.5118 7.15474C34.8244 7.4673 35 7.89122 35 8.33325V18.3333Z" fill="#C1BBEB"/>
</svg>
