<svg width="40" height="40" viewBox="0 0 40 40" fill="none" xmlns="http://www.w3.org/2000/svg">
<path d="M33.3334 13.3333L23.3334 4.56668C22.4167 3.74675 21.2299 3.29346 20 3.29346C18.7701 3.29346 17.5834 3.74675 16.6667 4.56668L6.6667 13.3333C6.13732 13.8068 5.71487 14.3876 5.42749 15.0371C5.14011 15.6866 4.99439 16.3898 5.00004 17.1V31.6667C5.00004 32.9928 5.52682 34.2645 6.4645 35.2022C7.40218 36.1399 8.67395 36.6667 10 36.6667H30C31.3261 36.6667 32.5979 36.1399 33.5356 35.2022C34.4733 34.2645 35 32.9928 35 31.6667V17.0833C35.0033 16.3759 34.8564 15.6759 34.5691 15.0295C34.2818 14.383 33.8606 13.8049 33.3334 13.3333ZM23.3334 33.3333H16.6667V25C16.6667 24.558 16.8423 24.1341 17.1549 23.8215C17.4674 23.5089 17.8913 23.3333 18.3334 23.3333H21.6667C22.1087 23.3333 22.5326 23.5089 22.8452 23.8215C23.1578 24.1341 23.3334 24.558 23.3334 25V33.3333ZM31.6667 31.6667C31.6667 32.1087 31.4911 32.5326 31.1785 32.8452C30.866 33.1577 30.4421 33.3333 30 33.3333H26.6667V25C26.6667 23.6739 26.1399 22.4022 25.2022 21.4645C24.2646 20.5268 22.9928 20 21.6667 20H18.3334C17.0073 20 15.7355 20.5268 14.7978 21.4645C13.8602 22.4022 13.3334 23.6739 13.3334 25V33.3333H10C9.55801 33.3333 9.13409 33.1577 8.82152 32.8452C8.50896 32.5326 8.33337 32.1087 8.33337 31.6667V17.0833C8.33367 16.8467 8.38436 16.6128 8.48206 16.3973C8.57977 16.1818 8.72225 15.9895 8.90004 15.8333L18.9 7.08334C19.2042 6.81614 19.5952 6.66879 20 6.66879C20.4049 6.66879 20.7959 6.81614 21.1 7.08334L31.1 15.8333C31.2778 15.9895 31.4203 16.1818 31.518 16.3973C31.6157 16.6128 31.6664 16.8467 31.6667 17.0833V31.6667Z" fill="#C1BBEB"/>
</svg>
