<svg width="40" height="40" viewBox="0 0 40 40" fill="none" xmlns="http://www.w3.org/2000/svg">
<path d="M36.2362 21.8435C33.9952 21.0315 31.5093 21.212 29.4073 22.3374L25.9808 23.8788C25.704 22.3007 24.4919 21.1148 22.9959 21.0692C22.9871 21.069 17.8583 21.0111 17.8583 21.0111C13.7532 19.885 11.0858 21.332 9.56421 22.7579C9.25301 23.0496 8.97934 23.3498 8.73848 23.646C8.32788 23.2038 7.6031 23.0856 7.07455 23.3762L2.41891 25.9354C1.81506 26.2674 1.55233 26.9956 1.80558 27.6358L6.35549 39.1377C6.65447 39.8934 7.57327 40.2274 8.29019 39.8333L12.9458 37.2742C13.3822 37.0343 13.6392 36.5873 13.6533 36.1162H20.6018C21.7352 36.1162 22.8542 35.8185 23.8378 35.2553C23.8378 35.2553 36.9062 27.7589 36.9799 27.6919C38.81 26.027 38.8664 22.7966 36.2362 21.8435C37.2854 22.2237 33.9952 21.0315 36.2362 21.8435ZM8.33182 36.688L4.79643 27.7508L7.03267 26.5216L10.5681 35.4588L8.33182 36.688ZM35.2312 25.5773L22.4744 32.8826C21.9051 33.2087 21.2575 33.381 20.6016 33.381H12.6916L10.0357 26.667C10.2632 26.2034 10.7113 25.4342 11.4391 24.7522C12.9296 23.3555 14.8942 22.998 17.2787 23.6898C17.398 23.7244 17.5214 23.7427 17.6455 23.7441L22.9176 23.8034C23.0522 23.815 23.3007 24.1143 23.3007 24.5679C23.3007 25.035 23.0441 25.3327 22.9099 25.3327H17.7299V28.0679H22.9099C23.5516 28.0679 24.1488 27.8509 24.6459 27.4791L30.5775 24.8109C30.609 24.7968 30.6398 24.7815 30.67 24.765C32.0929 23.9914 33.7811 23.8636 35.3015 24.4145C35.9031 24.6327 35.4685 25.3364 35.2312 25.5773ZM26.9996 19.7079C21.5665 19.7079 17.1463 15.2874 17.1463 9.85393C17.1463 4.42051 21.5664 0 26.9996 0C32.4328 0 36.8528 4.42051 36.8528 9.85393C36.8528 15.2874 32.4327 19.7079 26.9996 19.7079ZM26.9996 2.73521C23.0771 2.73521 19.886 5.92863 19.886 9.85393C19.886 13.7792 23.0772 16.9727 26.9996 16.9727C30.9222 16.9727 34.1133 13.7791 34.1133 9.85393C34.1133 5.92872 30.9221 2.73521 26.9996 2.73521Z" fill="#C1BBEB"/>
<path d="M27.6358 8.73914C26.5464 8.29179 26.4622 8.09957 26.4622 7.87675C26.4622 7.73444 26.5328 7.40359 27.1871 7.40359C27.7857 7.40359 28.5315 7.73957 29.0575 8.08581L29.7892 6.16786C29.2668 5.8353 28.6319 5.54957 28.0383 5.4582V4.21094H26.0874V5.57957C24.9284 5.94487 24.2142 6.87136 24.2142 8.0247C24.2142 9.55222 25.4363 10.2342 26.6299 10.6991C27.5836 11.0827 27.6635 11.3764 27.6635 11.6216C27.6635 11.9988 27.3159 12.2425 26.778 12.2425C26.0765 12.2425 25.2609 11.8379 24.6899 11.3951L23.9858 13.3438C24.5681 13.7953 25.2421 14.0932 26.0005 14.2044V15.4968H27.9635V14.09C29.1587 13.7094 29.9237 12.7192 29.9237 11.5353C29.9237 9.87803 28.7011 9.17051 27.6358 8.73914Z" fill="#C1BBEB"/>
</svg>
