<svg width="40" height="40" viewBox="0 0 40 40" fill="none" xmlns="http://www.w3.org/2000/svg">
<path d="M14.2545 3.50909C11.9689 4.64218 10.0465 6.39307 8.7053 8.56319C7.36414 10.7333 6.65791 13.2358 6.66671 15.7869V21.7166C6.66777 22.5871 7.01403 23.4216 7.62954 24.0371C8.24506 24.6526 9.07957 24.9989 9.95004 24.9999H13.3334V34.9999C13.3334 35.4419 13.509 35.8659 13.8215 36.1784C14.1341 36.491 14.558 36.6666 15 36.6666C15.4421 36.6666 15.866 36.491 16.1786 36.1784C16.4911 35.8659 16.6667 35.4419 16.6667 34.9999V4.99992C16.6665 4.7159 16.5937 4.43664 16.4553 4.18863C16.3169 3.94062 16.1174 3.73207 15.8758 3.58275C15.6342 3.43343 15.3585 3.34829 15.0747 3.33539C14.791 3.3225 14.5087 3.38229 14.2545 3.50909ZM13.3334 21.6833L10 21.7166V15.7869C9.99504 14.3524 10.2888 12.9326 10.8627 11.618C11.4366 10.3033 12.278 9.12253 13.3334 8.15092V21.6833ZM30 4.99992V11.6666C29.9995 12.1084 29.8237 12.532 29.5112 12.8445C29.1988 13.1569 28.7752 13.3327 28.3334 13.3333V4.99992C28.3334 4.55789 28.1578 4.13397 27.8452 3.82141C27.5327 3.50885 27.1087 3.33325 26.6667 3.33325C26.2247 3.33325 25.8008 3.50885 25.4882 3.82141C25.1756 4.13397 25 4.55789 25 4.99992V13.3333C24.5582 13.3327 24.1346 13.1569 23.8222 12.8445C23.5097 12.532 23.3339 12.1084 23.3334 11.6666V4.99992C23.3334 4.55789 23.1578 4.13397 22.8452 3.82141C22.5327 3.50885 22.1087 3.33325 21.6667 3.33325C21.2247 3.33325 20.8008 3.50885 20.4882 3.82141C20.1756 4.13397 20 4.55789 20 4.99992V11.6666C20.0015 12.9922 20.5287 14.2631 21.4661 15.2005C22.4035 16.1379 23.6744 16.6651 25 16.6666V34.9999C25 35.4419 25.1756 35.8659 25.4882 36.1784C25.8008 36.491 26.2247 36.6666 26.6667 36.6666C27.1087 36.6666 27.5327 36.491 27.8452 36.1784C28.1578 35.8659 28.3334 35.4419 28.3334 34.9999V16.6666C29.659 16.6651 30.9299 16.1379 31.8673 15.2005C32.8047 14.2631 33.3319 12.9922 33.3334 11.6666V4.99992C33.3334 4.55789 33.1578 4.13397 32.8452 3.82141C32.5327 3.50885 32.1087 3.33325 31.6667 3.33325C31.2247 3.33325 30.8008 3.50885 30.4882 3.82141C30.1756 4.13397 30 4.55789 30 4.99992Z" fill="#C1BBEB"/>
</svg>
