<svg width="32" height="32" viewBox="0 0 32 32" fill="none" xmlns="http://www.w3.org/2000/svg">
<path d="M12.2631 2.66667L11.4167 6.46615C10.9353 6.69779 10.4752 6.96458 10.0339 7.26563L6.32035 6.09636L2.58337 12.5703L5.39848 15.1484C5.28849 15.9648 5.33831 16.3672 5.39848 16.8516L2.58337 19.4297L6.32035 25.9037L10.0339 24.7344C10.4752 25.0354 10.9353 25.3022 11.4167 25.5339L12.2631 29.3333H19.737L20.5834 25.5339C21.0647 25.3022 21.5249 25.0354 21.9662 24.7344L25.6797 25.9037L29.4167 19.4297L26.6016 16.8516C26.6246 16.5682 26.6664 16.2845 26.6667 16C26.6678 15.7069 26.6216 15.4108 26.6016 15.1484L29.4167 12.5703L25.6797 6.09636L21.9662 7.26563C21.5249 6.96458 21.0647 6.69779 20.5834 6.46615L19.737 2.66667H12.2631ZM14.4037 5.33334H17.5964L18.2552 8.29167L18.9167 8.55209C19.6649 8.84512 20.3644 9.24846 20.9922 9.75001L21.5495 10.1927L24.4401 9.28386L26.0365 12.0495L23.8021 14.099L23.9089 14.8021C24.0346 15.5797 24.0101 16.4746 23.9089 17.1979L23.8021 17.901L26.0365 19.9505L24.4401 22.7162L21.5495 21.8073L20.9922 22.25C20.3644 22.7516 19.6649 23.1549 18.9167 23.4479L18.2552 23.7083L17.5964 26.6667H14.4037L13.7448 23.7083L13.0834 23.4479C12.3351 23.1549 11.6357 22.7516 11.0079 22.25L10.4506 21.8073L7.55994 22.7162L5.96358 19.9505L8.19796 17.901L8.09119 17.1979C7.96095 16.4046 7.98095 15.4967 8.09119 14.8021L8.19796 14.099L5.96358 12.0495L7.55994 9.28386L10.4506 10.1927L11.0079 9.75001C11.6357 9.24846 12.3351 8.84512 13.0834 8.55209L13.7448 8.29167L14.4037 5.33334ZM16 10.6667C13.0703 10.6667 10.6667 13.0703 10.6667 16C10.6667 18.9297 13.0703 21.3333 16 21.3333C18.9298 21.3333 21.3334 18.9297 21.3334 16C21.3334 13.0703 18.9298 10.6667 16 10.6667ZM16 13.3333C17.4886 13.3333 18.6667 14.5115 18.6667 16C18.6667 17.4886 17.4886 18.6667 16 18.6667C14.5115 18.6667 13.3334 17.4886 13.3334 16C13.3334 14.5115 14.5115 13.3333 16 13.3333Z" fill="#A098AE"/>
</svg>
